<svg width="160" height="161" viewBox="0 0 160 161" fill="none" xmlns="http://www.w3.org/2000/svg">
<circle cx="80.092" cy="80.3264" r="47.4982" stroke="#88CBB4"/>
<path d="M60.2969 99.279L99.0469 61.3623" stroke="#88CBB4" stroke-width="5" stroke-linecap="round" stroke-linejoin="round"/>
<path d="M60.2969 61.3623H99.0469V99.279" stroke="#88CBB4" stroke-width="5" stroke-linecap="round" stroke-linejoin="round"/>
<path d="M81.4016 142.85L81.4214 144.302H81.1828L77.8419 147.703H76.3902L79.9499 144.103H80.0493L81.4016 142.85ZM82.4953 140.066V150.248H81.322V140.066H82.4953ZM77.643 140.066L80.626 143.845L79.7908 144.66L76.1516 140.066H77.643Z" fill="#88CBB4"/>
<path d="M81.4016 142.85L81.4214 144.302H81.1828L77.8419 147.703H76.3902L79.9499 144.103H80.0493L81.4016 142.85ZM82.4953 140.066V150.248H81.322V140.066H82.4953ZM77.643 140.066L80.626 143.845L79.7908 144.66L76.1516 140.066H77.643Z" fill="#88CBB4"/>
<path d="M65.2226 142.947L66.4115 138.509L67.5449 138.813L65.5684 146.189L64.4735 145.896L64.7823 144.743L64.6863 144.718C64.4131 145.046 64.0699 145.276 63.6568 145.409C63.2429 145.545 62.7574 145.539 62.2004 145.39C61.7009 145.256 61.2914 145.036 60.9717 144.731C60.6512 144.429 60.4422 144.044 60.3448 143.575C60.2465 143.109 60.2814 142.563 60.4495 141.935L61.7054 137.248L62.8387 137.552L61.6034 142.162C61.4482 142.742 61.4777 143.233 61.692 143.637C61.9054 144.044 62.2747 144.318 62.7997 144.459C63.1615 144.556 63.5058 144.564 63.8328 144.484C64.1566 144.402 64.4404 144.233 64.6843 143.976C64.9282 143.719 65.1076 143.376 65.2226 142.947Z" fill="#88CBB4"/>
<path d="M50.299 131.925C50.896 132.27 51.3378 132.714 51.6244 133.259C51.9081 133.801 52.0287 134.401 51.9864 135.058C51.9411 135.713 51.7213 136.382 51.3268 137.065C50.9291 137.754 50.4571 138.283 49.9107 138.653C49.3615 139.021 48.781 139.218 48.1691 139.243C47.5544 139.267 46.9485 139.107 46.3515 138.762C45.7545 138.418 45.3141 137.974 45.0304 137.431C44.7438 136.887 44.624 136.286 44.6709 135.628C44.7149 134.968 44.9358 134.294 45.3336 133.605C45.728 132.922 46.199 132.398 46.7465 132.033C47.2912 131.666 47.8709 131.47 48.4856 131.446C49.0975 131.421 49.7019 131.58 50.299 131.925ZM49.772 132.838C49.3184 132.576 48.8782 132.477 48.4512 132.54C48.0242 132.604 47.631 132.784 47.2716 133.082C46.9122 133.38 46.6049 133.75 46.3497 134.192C46.0945 134.634 45.927 135.086 45.8472 135.549C45.7674 136.012 45.806 136.446 45.9629 136.85C46.1198 137.254 46.425 137.588 46.8785 137.849C47.332 138.111 47.7731 138.209 48.2018 138.143C48.6304 138.076 49.0253 137.893 49.3863 137.592C49.7474 137.292 50.0555 136.921 50.3107 136.478C50.5659 136.036 50.7326 135.585 50.8107 135.125C50.8888 134.665 50.8486 134.234 50.69 133.833C50.5315 133.431 50.2255 133.1 49.772 132.838Z" fill="#88CBB4"/>
<path d="M39.6529 124.376L35.8984 131.42L35.0266 130.549L37.9937 125.247L37.9374 125.191L32.6502 128.172L31.7643 127.286L34.7454 122.027L34.6891 121.971L29.4019 124.924L28.5301 124.052L35.575 120.298L36.3906 121.113L33.4236 126.443L33.5079 126.527L38.8374 123.56L39.6529 124.376Z" fill="#88CBB4"/>
<path d="M23.5938 100.309L16.2176 102.285L15.9243 101.19L17.0768 100.881L17.0511 100.785C16.6161 100.737 16.2439 100.571 15.9344 100.287C15.6217 100.003 15.401 99.6215 15.2724 99.1413C15.142 98.6547 15.1439 98.2201 15.2782 97.8376C15.4084 97.4527 15.6459 97.1162 15.9908 96.8283L15.9702 96.7514C15.5386 96.6646 15.1602 96.4623 14.8348 96.1446C14.5063 95.8278 14.2713 95.4052 14.1297 94.877C13.953 94.2175 14.015 93.6227 14.3156 93.0926C14.613 92.5634 15.1955 92.1826 16.0631 91.9501L20.9997 90.6274L21.3034 91.7607L16.3668 93.0835C15.8225 93.2293 15.4734 93.4824 15.3195 93.8427C15.1656 94.2031 15.1426 94.585 15.2507 94.9883C15.3897 95.507 15.6542 95.8667 16.0443 96.0676C16.4312 96.2693 16.8632 96.3063 17.3402 96.1785L22.1424 94.8917L22.4512 96.0442L17.3993 97.3979C16.9799 97.5103 16.6786 97.7368 16.4954 98.0776C16.309 98.4192 16.2733 98.8045 16.3882 99.2335C16.4671 99.528 16.6193 99.7823 16.8448 99.9964C17.0695 100.207 17.3421 100.354 17.6626 100.436C17.9791 100.516 18.3183 100.507 18.68 100.411L23.2901 99.1753L23.5938 100.309Z" fill="#88CBB4"/>
<path d="M20.5067 80.3252C20.5067 81.0146 20.3427 81.6195 20.0146 82.1399C19.6864 82.6569 19.2274 83.0613 18.6374 83.3529C18.0475 83.6413 17.3581 83.7855 16.5692 83.7855C15.7738 83.7855 15.0794 83.6413 14.4862 83.3529C13.8929 83.0613 13.4322 82.6569 13.104 82.1399C12.7759 81.6195 12.6119 81.0146 12.6119 80.3252C12.6119 79.6358 12.7759 79.0326 13.104 78.5156C13.4322 77.9952 13.8929 77.5909 14.4862 77.3025C15.0794 77.0108 15.7738 76.865 16.5692 76.865C17.3581 76.865 18.0475 77.0108 18.6374 77.3025C19.2274 77.5909 19.6864 77.9952 20.0146 78.5156C20.3427 79.0326 20.5067 79.6358 20.5067 80.3252ZM19.4528 80.3252C19.4528 79.8016 19.3185 79.3707 19.0501 79.0326C18.7816 78.6946 18.4286 78.4443 17.9911 78.2819C17.5536 78.1195 17.0797 78.0383 16.5692 78.0383C16.0588 78.0383 15.5832 78.1195 15.1424 78.2819C14.7016 78.4443 14.3453 78.6946 14.0735 79.0326C13.8017 79.3707 13.6658 79.8016 13.6658 80.3252C13.6658 80.8489 13.8017 81.2798 14.0735 81.6179C14.3453 81.9559 14.7016 82.2062 15.1424 82.3686C15.5832 82.531 16.0588 82.6122 16.5692 82.6122C17.0797 82.6122 17.5536 82.531 17.9911 82.3686C18.4286 82.2062 18.7816 81.9559 19.0501 81.6179C19.3185 81.2798 19.4528 80.8489 19.4528 80.3252Z" fill="#88CBB4"/>
<path d="M21.9887 66.3393L14.6126 64.3629L14.906 63.268L16.0201 63.5665L16.0407 63.4897C15.7117 63.2574 15.4808 62.9348 15.3478 62.5217C15.2149 62.1086 15.2076 61.6812 15.326 61.2394C15.3483 61.1562 15.3778 61.0526 15.4144 60.9286C15.4511 60.8046 15.4812 60.7114 15.5048 60.6491L16.6573 60.9579C16.6374 60.9937 16.5994 61.0779 16.5433 61.2104C16.4849 61.3389 16.4355 61.4784 16.3952 61.6288C16.2991 61.9874 16.2885 62.3277 16.3635 62.6497C16.4361 62.9677 16.5818 63.2435 16.8006 63.4772C17.017 63.7067 17.2917 63.8661 17.6247 63.9553L22.2924 65.206L21.9887 66.3393Z" fill="#88CBB4"/>
<path d="M28.591 50.3574C28.2231 50.9947 27.7651 51.4631 27.217 51.7628C26.6677 52.058 26.0669 52.1838 25.4147 52.1402C24.7612 52.0921 24.0958 51.8725 23.4184 51.4814C22.741 51.0903 22.2152 50.6222 21.8411 50.077C21.4657 49.5273 21.2615 48.9464 21.2285 48.3341C21.1942 47.7173 21.3495 47.1104 21.6942 46.5133C21.893 46.1689 22.1468 45.8619 22.4555 45.5923C22.7642 45.3228 23.1273 45.1248 23.5447 44.9984C23.9593 44.8704 24.4247 44.8463 24.9411 44.9263C25.4575 45.0063 26.0243 45.2245 26.6414 45.5808L27.072 45.8294L24.1288 50.9271L23.2505 50.42L25.5971 46.3556C25.2239 46.1401 24.8479 46.0225 24.4689 46.0028C24.0916 45.9801 23.7396 46.0562 23.4128 46.2312C23.0877 46.4032 22.819 46.6729 22.6069 47.0403C22.3733 47.445 22.2715 47.8532 22.3018 48.2649C22.3308 48.672 22.459 49.0465 22.6865 49.3883C22.914 49.7301 23.21 50.0062 23.5745 50.2167L24.16 50.5548C24.6595 50.8431 25.1326 51.0014 25.5793 51.0297C26.0249 51.0535 26.4275 50.9626 26.7873 50.757C27.1443 50.5498 27.4412 50.2409 27.6782 49.8304C27.8323 49.5635 27.9342 49.3009 27.9839 49.0425C28.0323 48.7796 28.0261 48.5253 27.9651 48.2796C27.9012 48.0322 27.7793 47.7992 27.5994 47.5805L28.4417 46.758C28.715 47.0535 28.9076 47.3962 29.0193 47.786C29.1282 48.1742 29.1493 48.5883 29.0828 49.0283C29.0135 49.4666 28.8495 49.9097 28.591 50.3574Z" fill="#88CBB4"/>
<path d="M49.6923 23.2178L50.2392 24.165L46.3814 26.3922L45.8346 25.445L49.6923 23.2178Z" fill="#88CBB4"/>
<path d="M78.7781 17.7979L78.7582 16.3462H78.9969L82.3378 12.9457H83.7895L80.2298 16.5451H80.1304L78.7781 17.7979ZM77.6844 20.582V10.4002L78.8577 10.4002V20.582H77.6844ZM82.5366 20.582L79.5537 16.8036L80.3889 15.9883L84.0281 20.582H82.5366Z" fill="#88CBB4"/>
<path d="M94.9571 17.7019L93.7681 22.1391L92.6348 21.8354L94.6113 14.4593L95.7062 14.7527L95.3973 15.9052L95.4934 15.9309C95.7666 15.6027 96.1098 15.3721 96.5229 15.2391C96.9368 15.103 97.4223 15.1096 97.9793 15.2588C98.4787 15.3926 98.8883 15.6122 99.208 15.9174C99.5285 16.2195 99.7375 16.6049 99.8349 17.0736C99.9332 17.5392 99.8983 18.0857 99.7301 18.7132L98.4743 23.4001L97.341 23.0965L98.5762 18.4864C98.7315 17.9069 98.702 17.4152 98.4877 17.0112C98.2743 16.604 97.905 16.3301 97.38 16.1894C97.0182 16.0924 96.6739 16.0842 96.3469 16.1648C96.0231 16.2462 95.7393 16.4154 95.4954 16.6726C95.2515 16.9298 95.072 17.2729 94.9571 17.7019Z" fill="#88CBB4"/>
<path d="M109.881 28.7234C109.284 28.3787 108.842 27.9342 108.555 27.3898C108.272 26.8471 108.151 26.2474 108.193 25.5907C108.239 24.9356 108.458 24.2665 108.853 23.5833C109.251 22.8944 109.723 22.3652 110.269 21.9956C110.818 21.6276 111.399 21.4308 112.011 21.4052C112.625 21.3812 113.231 21.5415 113.828 21.8862C114.425 22.2309 114.866 22.6746 115.149 23.2173C115.436 23.7616 115.556 24.3628 115.509 25.0208C115.465 25.6804 115.244 26.3547 114.846 27.0435C114.452 27.7267 113.981 28.2508 113.433 28.6159C112.888 28.9826 112.309 29.178 111.694 29.202C111.082 29.2276 110.478 29.0681 109.881 28.7234ZM110.408 27.8106C110.861 28.0725 111.302 28.1716 111.729 28.1082C112.156 28.0447 112.549 27.8641 112.908 27.5665C113.268 27.2688 113.575 26.8989 113.83 26.4569C114.085 26.0149 114.253 25.5624 114.332 25.0994C114.412 24.6364 114.374 24.2028 114.217 23.7984C114.06 23.394 113.755 23.0608 113.301 22.799C112.848 22.5372 112.407 22.4394 111.978 22.5057C111.549 22.5721 111.154 22.7555 110.793 23.0561C110.432 23.3566 110.124 23.7279 109.869 24.17C109.614 24.612 109.447 25.0631 109.369 25.5231C109.291 25.9832 109.331 26.414 109.49 26.8156C109.648 27.2171 109.954 27.5488 110.408 27.8106Z" fill="#88CBB4"/>
<path d="M120.527 36.2729L124.281 29.228L125.153 30.0998L122.186 35.4011L122.242 35.4573L127.53 32.4762L128.415 33.3621L125.434 38.6212L125.491 38.6775L130.778 35.7245L131.65 36.5964L124.605 40.3508L123.789 39.5353L126.756 34.2058L126.672 34.1215L121.342 37.0885L120.527 36.2729Z" fill="#88CBB4"/>
<path d="M136.586 60.3399L143.962 58.3634L144.255 59.4583L143.103 59.7671L143.129 59.8632C143.564 59.9113 143.936 60.0775 144.245 60.3618C144.558 60.6451 144.779 61.0269 144.907 61.5071C145.038 61.9938 145.036 62.4283 144.902 62.8109C144.771 63.1958 144.534 63.5322 144.189 63.8202L144.209 63.897C144.641 63.9838 145.02 64.1861 145.345 64.5038C145.673 64.8207 145.908 65.2432 146.05 65.7715C146.227 66.431 146.165 67.0258 145.864 67.5558C145.567 68.085 144.984 68.4658 144.117 68.6983L139.18 70.0211L138.876 68.8878L143.813 67.565C144.357 67.4192 144.706 67.1661 144.86 66.8057C145.014 66.4453 145.037 66.0635 144.929 65.6601C144.79 65.1415 144.525 64.7817 144.135 64.5808C143.748 64.3791 143.317 64.3422 142.84 64.47L138.037 65.7567L137.729 64.6042L142.78 63.2505C143.2 63.1382 143.501 62.9116 143.684 62.5709C143.871 62.2293 143.906 61.844 143.791 61.415C143.713 61.1204 143.56 60.8661 143.335 60.652C143.11 60.4411 142.838 60.2946 142.517 60.2123C142.201 60.1324 141.861 60.141 141.5 60.2379L136.89 61.4732L136.586 60.3399Z" fill="#88CBB4"/>
<path d="M139.673 80.3232C139.673 79.6338 139.837 79.0289 140.165 78.5086C140.493 77.9915 140.952 77.5872 141.542 77.2955C142.132 77.0071 142.822 76.863 143.61 76.863C144.406 76.863 145.1 77.0071 145.694 77.2955C146.287 77.5872 146.748 77.9915 147.076 78.5086C147.404 79.0289 147.568 79.6338 147.568 80.3232C147.568 81.0126 147.404 81.6158 147.076 82.1329C146.748 82.6532 146.287 83.0576 145.694 83.3459C145.1 83.6376 144.406 83.7834 143.61 83.7834C142.822 83.7834 142.132 83.6376 141.542 83.3459C140.952 83.0576 140.493 82.6532 140.165 82.1329C139.837 81.6158 139.673 81.0126 139.673 80.3232ZM140.727 80.3232C140.727 80.8469 140.861 81.2777 141.13 81.6158C141.398 81.9539 141.751 82.2041 142.189 82.3665C142.626 82.5289 143.1 82.6101 143.61 82.6101C144.121 82.6101 144.596 82.5289 145.037 82.3665C145.478 82.2041 145.834 81.9539 146.106 81.6158C146.378 81.2777 146.514 80.8469 146.514 80.3232C146.514 79.7995 146.378 79.3686 146.106 79.0306C145.834 78.6925 145.478 78.4423 145.037 78.2799C144.596 78.1175 144.121 78.0363 143.61 78.0363C143.1 78.0363 142.626 78.1175 142.189 78.2799C141.751 78.4423 141.398 78.6925 141.13 79.0306C140.861 79.3686 140.727 79.7995 140.727 80.3232Z" fill="#88CBB4"/>
<path d="M138.191 94.3091L145.567 96.2855L145.274 97.3804L144.16 97.0819L144.139 97.1587C144.468 97.391 144.699 97.7137 144.832 98.1267C144.965 98.5398 144.972 98.9672 144.854 99.409C144.831 99.4923 144.802 99.5959 144.765 99.7199C144.729 99.8439 144.698 99.937 144.675 99.9994L143.522 99.6905C143.542 99.6547 143.58 99.5705 143.636 99.438C143.695 99.3095 143.744 99.1701 143.785 99.0196C143.881 98.661 143.891 98.3207 143.816 97.9987C143.744 97.6807 143.598 97.4049 143.379 97.1713C143.163 96.9417 142.888 96.7823 142.555 96.6931L137.887 95.4424L138.191 94.3091Z" fill="#88CBB4"/>
<path d="M131.589 110.291C131.957 109.654 132.415 109.185 132.963 108.886C133.512 108.59 134.113 108.465 134.765 108.508C135.418 108.556 136.084 108.776 136.761 109.167C137.439 109.558 137.964 110.026 138.339 110.571C138.714 111.121 138.918 111.702 138.951 112.314C138.985 112.931 138.83 113.538 138.486 114.135C138.287 114.48 138.033 114.787 137.724 115.056C137.415 115.326 137.052 115.524 136.635 115.65C136.22 115.778 135.755 115.802 135.239 115.722C134.722 115.642 134.155 115.424 133.538 115.068L133.108 114.819L136.051 109.721L136.929 110.228L134.583 114.293C134.956 114.508 135.332 114.626 135.711 114.646C136.088 114.668 136.44 114.592 136.767 114.417C137.092 114.245 137.361 113.976 137.573 113.608C137.806 113.203 137.908 112.795 137.878 112.384C137.849 111.976 137.721 111.602 137.493 111.26C137.266 110.918 136.97 110.642 136.605 110.432L136.02 110.094C135.52 109.805 135.047 109.647 134.6 109.619C134.155 109.595 133.752 109.686 133.392 109.891C133.035 110.099 132.738 110.408 132.501 110.818C132.347 111.085 132.245 111.348 132.196 111.606C132.147 111.869 132.154 112.123 132.215 112.369C132.278 112.616 132.4 112.849 132.58 113.068L131.738 113.89C131.465 113.595 131.272 113.252 131.16 112.862C131.052 112.474 131.03 112.06 131.097 111.62C131.166 111.182 131.33 110.739 131.589 110.291Z" fill="#88CBB4"/>
<path d="M110.487 137.431L109.94 136.483L113.798 134.256L114.345 135.203L110.487 137.431Z" fill="#88CBB4"/>
</svg>
