<svg width="161" height="161" viewBox="0 0 161 161" fill="none" xmlns="http://www.w3.org/2000/svg">
<circle cx="80.4592" cy="80.3224" r="47.4982" stroke="white"/>
<path d="M60.6641 99.2751L99.4141 61.3584" stroke="#88CBB4" stroke-width="2" stroke-linecap="round" stroke-linejoin="round"/>
<path d="M60.6641 61.3584H99.4141V99.2751" stroke="#88CBB4" stroke-width="2" stroke-linecap="round" stroke-linejoin="round"/>
<path d="M81.7687 142.847L81.7886 144.298H81.55L78.2091 147.699H76.7574L80.317 144.099H80.4165L81.7687 142.847ZM82.8625 140.062V150.244H81.6892V140.062H82.8625ZM78.0102 140.062L80.9932 143.841L80.158 144.656L76.5187 140.062H78.0102Z" fill="white"/>
<path d="M81.7687 142.847L81.7886 144.298H81.55L78.2091 147.699H76.7574L80.317 144.099H80.4165L81.7687 142.847ZM82.8625 140.062V150.244H81.6892V140.062H82.8625ZM78.0102 140.062L80.9932 143.841L80.158 144.656L76.5187 140.062H78.0102Z" fill="white"/>
<path d="M65.5898 142.943L66.7787 138.505L67.9121 138.809L65.9356 146.185L64.8407 145.892L65.1495 144.739L65.0535 144.714C64.7802 145.042 64.4371 145.272 64.024 145.405C63.6101 145.542 63.1246 145.535 62.5676 145.386C62.0681 145.252 61.6586 145.032 61.3389 144.727C61.0184 144.425 60.8094 144.04 60.712 143.571C60.6137 143.105 60.6486 142.559 60.8167 141.931L62.0726 137.244L63.2059 137.548L61.9706 142.158C61.8154 142.738 61.8449 143.229 62.0592 143.633C62.2726 144.041 62.6419 144.314 63.1669 144.455C63.5287 144.552 63.873 144.56 64.2 144.48C64.5237 144.398 64.8076 144.229 65.0515 143.972C65.2954 143.715 65.4748 143.372 65.5898 142.943Z" fill="white"/>
<path d="M50.6661 131.921C51.2632 132.266 51.705 132.71 51.9916 133.255C52.2753 133.797 52.3959 134.397 52.3535 135.054C52.3083 135.709 52.0884 136.378 51.694 137.061C51.2963 137.75 50.8243 138.279 50.2779 138.649C49.7287 139.017 49.1481 139.214 48.5363 139.239C47.9216 139.263 47.3157 139.103 46.7187 138.758C46.1217 138.414 45.6813 137.97 45.3976 137.427C45.111 136.883 44.9912 136.282 45.0381 135.624C45.0821 134.964 45.303 134.29 45.7007 133.601C46.0952 132.918 46.5661 132.394 47.1137 132.029C47.6584 131.662 48.2381 131.467 48.8528 131.443C49.4647 131.417 50.0691 131.576 50.6661 131.921ZM50.1391 132.834C49.6856 132.572 49.2454 132.473 48.8184 132.536C48.3914 132.6 47.9982 132.78 47.6388 133.078C47.2794 133.376 46.9721 133.746 46.7168 134.188C46.4616 134.63 46.2942 135.082 46.2144 135.545C46.1346 136.008 46.1732 136.442 46.3301 136.846C46.487 137.251 46.7922 137.584 47.2457 137.846C47.6992 138.107 48.1403 138.205 48.569 138.139C48.9976 138.072 49.3925 137.889 49.7535 137.588C50.1146 137.288 50.4227 136.917 50.6779 136.475C50.9331 136.033 51.0998 135.581 51.1779 135.121C51.256 134.661 51.2158 134.23 51.0572 133.829C50.8987 133.427 50.5927 133.096 50.1391 132.834Z" fill="white"/>
<path d="M40.0201 124.372L36.2656 131.417L35.3938 130.545L38.3608 125.243L38.3046 125.187L33.0174 128.168L32.1315 127.282L35.1126 122.023L35.0563 121.967L29.7691 124.92L28.8973 124.048L35.9422 120.294L36.7578 121.109L33.7908 126.439L33.8751 126.523L39.2045 123.556L40.0201 124.372Z" fill="white"/>
<path d="M23.961 100.305L16.5848 102.281L16.2915 101.186L17.444 100.877L17.4182 100.781C16.9833 100.733 16.6111 100.567 16.3016 100.283C15.9889 99.9994 15.7682 99.6176 15.6395 99.1374C15.5091 98.6508 15.5111 98.2162 15.6453 97.8337C15.7755 97.4488 16.0131 97.1123 16.358 96.8243L16.3374 96.7475C15.9058 96.6607 15.5273 96.4584 15.202 96.1407C14.8735 95.8239 14.6385 95.4013 14.4969 94.8731C14.3202 94.2136 14.3821 93.6188 14.6828 93.0887C14.9802 92.5595 15.5627 92.1787 16.4303 91.9462L21.3669 90.6235L21.6706 91.7568L16.7339 93.0795C16.1897 93.2254 15.8406 93.4785 15.6867 93.8388C15.5327 94.1992 15.5098 94.5811 15.6179 94.9844C15.7569 95.5031 16.0214 95.8628 16.4115 96.0637C16.7984 96.2654 17.2303 96.3024 17.7074 96.1745L22.5095 94.8878L22.8184 96.0403L17.7665 97.394C17.3471 97.5064 17.0458 97.7329 16.8626 98.0737C16.6762 98.4153 16.6404 98.8006 16.7554 99.2296C16.8343 99.5241 16.9865 99.7784 17.212 99.9925C17.4367 100.203 17.7093 100.35 18.0298 100.432C18.3463 100.512 18.6855 100.504 19.0472 100.407L23.6573 99.1714L23.961 100.305Z" fill="white"/>
<path d="M20.8739 80.3213C20.8739 81.0107 20.7099 81.6156 20.3817 82.136C20.0536 82.653 19.5946 83.0574 19.0046 83.349C18.4147 83.6374 17.7253 83.7816 16.9364 83.7816C16.141 83.7816 15.4466 83.6374 14.8533 83.349C14.2601 83.0574 13.7994 82.653 13.4712 82.136C13.1431 81.6156 12.979 81.0107 12.979 80.3213C12.979 79.6319 13.1431 79.0287 13.4712 78.5117C13.7994 77.9913 14.2601 77.587 14.8533 77.2986C15.4466 77.0069 16.141 76.8611 16.9364 76.8611C17.7253 76.8611 18.4147 77.0069 19.0046 77.2986C19.5946 77.587 20.0536 77.9913 20.3817 78.5117C20.7099 79.0287 20.8739 79.6319 20.8739 80.3213ZM19.82 80.3213C19.82 79.7977 19.6857 79.3668 19.4173 79.0287C19.1488 78.6907 18.7958 78.4404 18.3583 78.278C17.9208 78.1156 17.4469 78.0344 16.9364 78.0344C16.426 78.0344 15.9504 78.1156 15.5096 78.278C15.0688 78.4404 14.7125 78.6907 14.4407 79.0287C14.1689 79.3668 14.033 79.7977 14.033 80.3213C14.033 80.845 14.1689 81.2759 14.4407 81.614C14.7125 81.952 15.0688 82.2023 15.5096 82.3647C15.9504 82.5271 16.426 82.6083 16.9364 82.6083C17.4469 82.6083 17.9208 82.5271 18.3583 82.3647C18.7958 82.2023 19.1488 81.952 19.4173 81.614C19.6857 81.2759 19.82 80.845 19.82 80.3213Z" fill="white"/>
<path d="M22.3559 66.3354L14.9798 64.359L15.2731 63.2641L16.3873 63.5626L16.4078 63.4858C16.0789 63.2535 15.848 62.9309 15.715 62.5178C15.5821 62.1047 15.5748 61.6773 15.6932 61.2355C15.7155 61.1523 15.745 61.0486 15.7816 60.9246C15.8183 60.8006 15.8484 60.7075 15.8719 60.6452L17.0245 60.954C17.0046 60.9898 16.9666 61.074 16.9105 61.2065C16.852 61.335 16.8027 61.4745 16.7623 61.6249C16.6663 61.9835 16.6557 62.3238 16.7307 62.6458C16.8033 62.9638 16.949 63.2396 17.1678 63.4732C17.3842 63.7028 17.6589 63.8622 17.9919 63.9514L22.6596 65.2021L22.3559 66.3354Z" fill="white"/>
<path d="M28.9582 50.3535C28.5903 50.9907 28.1323 51.4592 27.5842 51.7589C27.0349 52.0541 26.4341 52.1799 25.7819 52.1363C25.1284 52.0882 24.463 51.8686 23.7856 51.4775C23.1082 51.0864 22.5824 50.6183 22.2083 50.0731C21.8329 49.5234 21.6287 48.9425 21.5957 48.3302C21.5614 47.7134 21.7166 47.1065 22.0613 46.5094C22.2602 46.165 22.514 45.858 22.8227 45.5884C23.1314 45.3189 23.4945 45.1209 23.9119 44.9945C24.3264 44.8665 24.7919 44.8424 25.3083 44.9224C25.8247 45.0024 26.3915 45.2206 27.0086 45.5769L27.4392 45.8254L24.496 50.9232L23.6177 50.4161L25.9642 46.3517C25.5911 46.1362 25.215 46.0186 24.8361 45.9989C24.4588 45.9762 24.1068 46.0523 23.78 46.2272C23.4549 46.3993 23.1862 46.669 22.9741 47.0364C22.7404 47.4411 22.6387 47.8493 22.669 48.261C22.698 48.6681 22.8262 49.0426 23.0537 49.3844C23.2812 49.7262 23.5772 50.0023 23.9417 50.2128L24.5272 50.5509C25.0267 50.8392 25.4998 50.9975 25.9465 51.0258C26.392 51.0496 26.7947 50.9587 27.1545 50.7531C27.5115 50.5459 27.8084 50.237 28.0454 49.8265C28.1995 49.5596 28.3014 49.2969 28.3511 49.0386C28.3995 48.7757 28.3933 48.5214 28.3323 48.2757C28.2684 48.0283 28.1465 47.7953 27.9666 47.5766L28.8089 46.7541C29.0822 47.0496 29.2748 47.3923 29.3865 47.7821C29.4953 48.1703 29.5165 48.5844 29.45 49.0244C29.3806 49.4627 29.2167 49.9058 28.9582 50.3535Z" fill="white"/>
<path d="M50.0595 23.2138L50.6064 24.1611L46.7486 26.3883L46.2018 25.4411L50.0595 23.2138Z" fill="white"/>
<path d="M79.1453 17.794L79.1254 16.3423H79.3641L82.705 12.9418H84.1567L80.597 16.5412H80.4976L79.1453 17.794ZM78.0516 20.5781V10.3963L79.2249 10.3963V20.5781H78.0516ZM82.9038 20.5781L79.9209 16.7997L80.7561 15.9844L84.3953 20.5781H82.9038Z" fill="white"/>
<path d="M95.3243 17.698L94.1353 22.1352L93.002 21.8315L94.9784 14.4554L96.0733 14.7488L95.7645 15.9013L95.8606 15.927C96.1338 15.5988 96.477 15.3682 96.89 15.2352C97.304 15.0991 97.7895 15.1056 98.3465 15.2549C98.8459 15.3887 99.2555 15.6083 99.5752 15.9135C99.8957 16.2156 100.105 16.601 100.202 17.0697C100.3 17.5353 100.265 18.0818 100.097 18.7093L98.8415 23.3962L97.7082 23.0926L98.9434 18.4825C99.0987 17.903 99.0692 17.4113 98.8549 17.0073C98.6414 16.6001 98.2722 16.3262 97.7472 16.1855C97.3854 16.0885 97.041 16.0803 96.7141 16.1609C96.3903 16.2422 96.1065 16.4115 95.8626 16.6687C95.6187 16.9259 95.4392 17.269 95.3243 17.698Z" fill="white"/>
<path d="M110.248 28.7195C109.651 28.3748 109.209 27.9303 108.923 27.3859C108.639 26.8432 108.518 26.2435 108.561 25.5868C108.606 24.9317 108.826 24.2625 109.22 23.5794C109.618 22.8905 110.09 22.3613 110.636 21.9917C111.185 21.6237 111.766 21.4269 112.378 21.4013C112.992 21.3773 113.598 21.5376 114.195 21.8823C114.792 22.227 115.233 22.6707 115.516 23.2134C115.803 23.7577 115.923 24.3589 115.876 25.0169C115.832 25.6765 115.611 26.3507 115.213 27.0396C114.819 27.7228 114.348 28.2469 113.8 28.612C113.256 28.9787 112.676 29.1741 112.061 29.1981C111.449 29.2237 110.845 29.0642 110.248 28.7195ZM110.775 27.8067C111.228 28.0686 111.669 28.1677 112.096 28.1043C112.523 28.0408 112.916 27.8602 113.275 27.5626C113.635 27.2649 113.942 26.895 114.197 26.453C114.452 26.0109 114.62 25.5585 114.7 25.0955C114.779 24.6325 114.741 24.1989 114.584 23.7944C114.427 23.39 114.122 23.0569 113.668 22.7951C113.215 22.5333 112.774 22.4355 112.345 22.5018C111.916 22.5682 111.522 22.7516 111.161 23.0522C110.799 23.3527 110.491 23.724 110.236 24.166C109.981 24.6081 109.814 25.0591 109.736 25.5192C109.658 25.9793 109.698 26.4101 109.857 26.8117C110.015 27.2132 110.321 27.5449 110.775 27.8067Z" fill="white"/>
<path d="M120.894 36.269L124.648 29.2241L125.52 30.0959L122.553 35.3972L122.609 35.4534L127.897 32.4723L128.783 33.3582L125.801 38.6173L125.858 38.6736L131.145 35.7206L132.017 36.5924L124.972 40.3469L124.156 39.5314L127.123 34.2019L127.039 34.1176L121.71 37.0846L120.894 36.269Z" fill="white"/>
<path d="M136.953 60.336L144.329 58.3595L144.623 59.4544L143.47 59.7632L143.496 59.8593C143.931 59.9074 144.303 60.0736 144.612 60.3578C144.925 60.6412 145.146 61.023 145.275 61.5032C145.405 61.9898 145.403 62.4244 145.269 62.807C145.139 63.1918 144.901 63.5283 144.556 63.8163L144.577 63.8931C145.008 63.9799 145.387 64.1822 145.712 64.4999C146.041 64.8168 146.276 65.2393 146.417 65.7676C146.594 66.4271 146.532 67.0218 146.231 67.5519C145.934 68.0811 145.351 68.4619 144.484 68.6944L139.547 70.0172L139.243 68.8838L144.18 67.5611C144.724 67.4152 145.073 67.1622 145.227 66.8018C145.381 66.4414 145.404 66.0596 145.296 65.6562C145.157 65.1375 144.893 64.7778 144.503 64.5769C144.116 64.3752 143.684 64.3383 143.207 64.4661L138.405 65.7528L138.096 64.6003L143.148 63.2466C143.567 63.1343 143.868 62.9077 144.051 62.567C144.238 62.2253 144.274 61.84 144.159 61.411C144.08 61.1165 143.928 60.8622 143.702 60.6481C143.477 60.4372 143.205 60.2907 142.884 60.2084C142.568 60.1285 142.229 60.1371 141.867 60.234L137.257 61.4693L136.953 60.336Z" fill="white"/>
<path d="M140.04 80.3193C140.04 79.6299 140.204 79.025 140.532 78.5047C140.86 77.9876 141.319 77.5833 141.909 77.2916C142.499 77.0032 143.189 76.8591 143.978 76.8591C144.773 76.8591 145.467 77.0032 146.061 77.2916C146.654 77.5833 147.115 77.9876 147.443 78.5047C147.771 79.025 147.935 79.6299 147.935 80.3193C147.935 81.0087 147.771 81.6119 147.443 82.1289C147.115 82.6493 146.654 83.0537 146.061 83.342C145.467 83.6337 144.773 83.7795 143.978 83.7795C143.189 83.7795 142.499 83.6337 141.909 83.342C141.319 83.0537 140.86 82.6493 140.532 82.1289C140.204 81.6119 140.04 81.0087 140.04 80.3193ZM141.094 80.3193C141.094 80.843 141.228 81.2738 141.497 81.6119C141.765 81.95 142.118 82.2002 142.556 82.3626C142.993 82.525 143.467 82.6062 143.978 82.6062C144.488 82.6062 144.964 82.525 145.404 82.3626C145.845 82.2002 146.202 81.95 146.473 81.6119C146.745 81.2738 146.881 80.843 146.881 80.3193C146.881 79.7956 146.745 79.3647 146.473 79.0267C146.202 78.6886 145.845 78.4384 145.404 78.276C144.964 78.1136 144.488 78.0324 143.978 78.0324C143.467 78.0324 142.993 78.1136 142.556 78.276C142.118 78.4384 141.765 78.6886 141.497 79.0267C141.228 79.3647 141.094 79.7956 141.094 80.3193Z" fill="white"/>
<path d="M138.558 94.3052L145.934 96.2816L145.641 97.3765L144.527 97.078L144.506 97.1548C144.835 97.3871 145.066 97.7098 145.199 98.1228C145.332 98.5359 145.339 98.9633 145.221 99.4051C145.199 99.4884 145.169 99.592 145.132 99.716C145.096 99.84 145.066 99.9331 145.042 99.9954L143.89 99.6866C143.909 99.6508 143.947 99.5666 144.004 99.4341C144.062 99.3056 144.111 99.1662 144.152 99.0157C144.248 98.6571 144.258 98.3168 144.183 97.9948C144.111 97.6768 143.965 97.401 143.746 97.1674C143.53 96.9378 143.255 96.7784 142.922 96.6892L138.254 95.4385L138.558 94.3052Z" fill="white"/>
<path d="M131.956 110.287C132.324 109.65 132.782 109.181 133.33 108.882C133.879 108.586 134.48 108.461 135.132 108.504C135.786 108.552 136.451 108.772 137.128 109.163C137.806 109.554 138.332 110.022 138.706 110.568C139.081 111.117 139.285 111.698 139.318 112.31C139.353 112.927 139.197 113.534 138.853 114.131C138.654 114.476 138.4 114.783 138.091 115.052C137.783 115.322 137.42 115.52 137.002 115.646C136.588 115.774 136.122 115.798 135.606 115.718C135.089 115.638 134.523 115.42 133.905 115.064L133.475 114.815L136.418 109.717L137.296 110.225L134.95 114.289C135.323 114.504 135.699 114.622 136.078 114.642C136.455 114.664 136.807 114.588 137.134 114.413C137.459 114.241 137.728 113.972 137.94 113.604C138.174 113.199 138.275 112.791 138.245 112.38C138.216 111.973 138.088 111.598 137.86 111.256C137.633 110.914 137.337 110.638 136.972 110.428L136.387 110.09C135.887 109.801 135.414 109.643 134.968 109.615C134.522 109.591 134.119 109.682 133.76 109.888C133.403 110.095 133.106 110.404 132.869 110.814C132.715 111.081 132.613 111.344 132.563 111.602C132.515 111.865 132.521 112.119 132.582 112.365C132.646 112.612 132.768 112.845 132.947 113.064L132.105 113.887C131.832 113.591 131.639 113.248 131.528 112.858C131.419 112.47 131.398 112.056 131.464 111.616C131.533 111.178 131.697 110.735 131.956 110.287Z" fill="white"/>
<path d="M110.855 137.427L110.308 136.48L114.165 134.252L114.712 135.2L110.855 137.427Z" fill="white"/>
</svg>
